<svg width="203" height="70" viewBox="0 0 203 70" fill="none" xmlns="http://www.w3.org/2000/svg">
<path d="M0 34.5291H0.154577C9.60311 34.5291 17.2547 26.8775 17.2547 17.429V17.2744H0V34.5291Z" fill="#F4F4F4"/>
<path d="M76.2261 27.4181C75.7044 24.9449 74.9315 22.5683 73.9075 20.3076C73.4437 19.2642 72.9027 18.2401 72.3424 17.2547C70.8352 14.6269 68.9803 12.2309 66.8549 10.1055C64.7294 7.98005 62.3335 6.12513 59.7057 4.618C58.7202 4.03833 57.6962 3.51663 56.6528 3.0529C52.3246 1.08204 47.5134 0 42.4317 0H17.2549V17.2547H42.4317C47.2042 17.2547 51.5131 19.1869 54.6433 22.3171C57.7735 25.4473 59.7057 29.7561 59.7057 34.5287C59.7057 37.427 58.9908 40.1708 57.7155 42.5667C56.904 44.1125 55.8606 45.523 54.6433 46.7403C51.5131 49.8705 47.2042 51.8027 42.4317 51.8027H17.2549V69.0767H42.4317C47.4941 69.0767 52.3053 67.9947 56.6528 66.0238C57.6962 65.5408 58.7202 65.0191 59.7057 64.4587C62.3335 62.9516 64.7294 61.0967 66.8549 58.9712C68.9803 56.8458 70.8352 54.4499 72.3424 51.822C72.922 50.8366 73.4437 49.8125 73.9075 48.7691C75.8783 44.441 76.9604 39.6298 76.9604 34.548C76.9604 32.1134 76.7092 29.7368 76.2261 27.4375V27.4181Z" fill="#F4F4F4"/>
<path d="M114.696 69.0576C108.301 69.0576 102.987 68.1495 98.7749 66.3332C94.5626 64.5169 91.3552 62.121 89.1911 59.184C87.0077 56.247 85.8677 53.1168 85.7324 49.7934C85.7324 49.291 85.945 48.8273 86.3507 48.4022C86.7565 47.9771 87.2589 47.7839 87.8385 47.7839H99.9149C100.804 47.7839 101.499 47.9385 101.982 48.267C102.465 48.5954 102.891 49.0012 103.277 49.5229C103.779 50.489 104.514 51.4165 105.441 52.3053C106.368 53.1941 107.605 53.9284 109.132 54.4694C110.658 55.0104 112.513 55.2809 114.696 55.2809C118.406 55.2809 121.208 54.7012 123.082 53.5612C124.976 52.4019 125.903 50.8368 125.903 48.866C125.903 47.3975 125.382 46.2188 124.377 45.3107C123.353 44.4219 121.71 43.591 119.43 42.8568C117.15 42.1225 114.136 41.369 110.368 40.5961C105.499 39.572 101.364 38.2388 97.944 36.6157C94.524 34.9926 91.9155 32.8479 90.1186 30.1814C88.3216 27.5343 87.4328 24.2109 87.4328 20.2498C87.4328 16.2888 88.5341 12.8688 90.7369 9.79655C92.9396 6.72432 96.0311 4.32837 99.9922 2.6087C103.953 0.889029 108.649 0.0195312 114.097 0.0195312C118.503 0.0195312 122.387 0.599196 125.749 1.7392C129.111 2.89853 131.932 4.42498 134.231 6.33788C136.53 8.25077 138.269 10.2796 139.467 12.4244C140.646 14.5691 141.264 16.6559 141.342 18.7041C141.342 19.2258 141.168 19.6895 140.82 20.0953C140.472 20.5203 139.97 20.7136 139.332 20.7136H126.676C125.98 20.7136 125.362 20.5783 124.86 20.3271C124.338 20.0759 123.894 19.6508 123.527 19.0712C123.14 17.6607 122.135 16.424 120.512 15.3806C118.889 14.3179 116.764 13.7962 114.136 13.7962C111.315 13.7962 109.132 14.2986 107.566 15.284C106.001 16.2695 105.209 17.7959 105.209 19.8441C105.209 21.1193 105.634 22.24 106.504 23.2061C107.373 24.1722 108.803 25.0031 110.813 25.6987C112.822 26.3943 115.585 27.1285 119.102 27.9014C124.918 28.9834 129.613 30.3553 133.207 31.9784C136.782 33.6014 139.429 35.7269 141.129 38.3161C142.829 40.9052 143.68 44.1513 143.68 48.0544C143.68 52.4019 142.424 56.1504 139.931 59.2806C137.439 62.4108 134.038 64.8261 129.71 66.5264C125.381 68.2268 120.396 69.0769 114.696 69.0769V69.0576Z" fill="#F4F4F4"/>
<path d="M154.906 69.3859C154.172 69.3859 153.592 69.1347 153.128 68.6516C152.664 68.1493 152.433 67.5696 152.433 66.9126V2.47324C152.433 1.73899 152.664 1.15933 153.128 0.695598C153.592 0.231866 154.191 0 154.906 0H167.987C168.721 0 169.301 0.231866 169.765 0.695598C170.228 1.15933 170.46 1.75832 170.46 2.47324V54.4112H200.487C201.221 54.4112 201.801 54.6624 202.264 55.1454C202.728 55.6478 202.96 56.2468 202.96 56.9811V66.8933C202.96 67.5503 202.728 68.1299 202.264 68.6323C201.801 69.1347 201.202 69.3666 200.487 69.3666H154.887L154.906 69.3859Z" fill="#F4F4F4"/>
</svg>
